<?xml version="1.0" encoding="utf-8"?>
<!-- Generator: Adobe Illustrator 15.0.2, SVG Export Plug-In  -->
<!DOCTYPE svg [
	<!ENTITY ns_flows "http://ns.adobe.com/Flows/1.0/">
]>
<svg version="1.2" baseProfile="tiny"
	 xmlns="http://www.w3.org/2000/svg" xmlns:xlink="http://www.w3.org/1999/xlink" xmlns:a="http://ns.adobe.com/AdobeSVGViewerExtensions/3.0/"
	 x="0px" y="0px" width="140px" height="40px" viewBox="0 0 140 40" overflow="visible" xml:space="preserve">
<defs>
</defs>
<rect fill="#D04727" width="140" height="3"/>
<rect y="37" fill="#D04626" width="140" height="3"/>
<path fill="#D04626" d="M136.061,12.789c-1.199-1.202-2.934-1.789-4.908-1.789h-6.671v19h6.671c1.975,0,3.709-0.588,4.908-1.789
	c2.056-2.053,1.922-5.096,1.922-7.844C137.982,17.618,138.116,14.843,136.061,12.789 M134.088,26.129
	c-0.8,0.881-1.868,1.281-3.229,1.281h-3.496V13.589h3.496c1.361,0,2.43,0.4,3.229,1.28c0.985,1.095,1.013,2.883,1.013,5.498
	C135.101,22.98,135.073,25.035,134.088,26.129z"/>
<path fill="#D04626" d="M13.567,20.234c1.279-0.507,2.561-1.976,2.561-4.03c0-3.202-2.215-5.204-5.737-5.204H3v19h7.684
	c3.364,0,5.738-1.867,5.738-5.365C16.422,22.234,15.034,20.821,13.567,20.234 M5.882,13.589h4.269c1.841,0,3.096,0.96,3.096,2.721
	c0,1.762-1.255,2.723-3.096,2.723H5.882V13.589z M10.417,27.41H5.882v-5.789h4.535c2.001,0,3.123,1.199,3.123,2.883
	C13.541,26.186,12.419,27.41,10.417,27.41z"/>
<polyline fill="#D04626" points="22.691,30 34.832,30 34.832,27.41 25.573,27.41 25.573,21.701 33.471,21.701 33.471,19.139 
	25.573,19.139 25.573,13.589 34.832,13.589 34.832,11 22.691,11 22.691,30 "/>
<polyline fill="#D04626" points="52.202,24.344 43.424,11 40.781,11 40.781,30 43.662,30 43.662,16.631 52.441,30 55.084,30 
	55.084,11 52.202,11 52.202,24.344 "/>
<polyline fill="#D04626" points="76.162,24.582 72.346,11 70.025,11 66.21,24.582 62.899,11 59.859,11 64.822,30 67.331,30 
	71.172,16.685 75.042,30 77.55,30 82.513,11 79.472,11 76.162,24.582 "/>
<path fill="#D04626" d="M98.174,12.869c-1.308-1.307-2.989-2.028-5.017-2.028s-3.682,0.721-4.99,2.028
	c-1.867,1.868-1.842,3.976-1.842,7.631c0,3.657-0.025,5.764,1.842,7.633c1.309,1.307,2.963,2.027,4.99,2.027
	s3.709-0.721,5.017-2.027c1.868-1.869,1.815-3.977,1.815-7.633C99.989,16.845,100.042,14.737,98.174,12.869 M95.985,26.396
	c-0.667,0.721-1.707,1.176-2.828,1.176s-2.161-0.455-2.828-1.176c-0.934-1.014-1.122-2.08-1.122-5.897
	c0-3.815,0.188-4.883,1.122-5.896c0.667-0.722,1.707-1.175,2.828-1.175s2.161,0.454,2.828,1.175c0.936,1.013,1.122,2.08,1.122,5.896
	C97.107,24.316,96.921,25.383,95.985,26.396z"/>
<path fill="#D04626" d="M117.075,12.869c-1.31-1.307-2.99-2.028-5.019-2.028s-3.682,0.721-4.989,2.028
	c-1.867,1.868-1.842,3.976-1.842,7.631c0,3.657-0.025,5.764,1.842,7.633c1.308,1.307,2.961,2.027,4.989,2.027
	s3.709-0.721,5.019-2.027c1.865-1.869,1.812-3.977,1.812-7.633C118.887,16.845,118.94,14.737,117.075,12.869 M114.886,26.396
	c-0.668,0.721-1.709,1.176-2.829,1.176c-1.122,0-2.161-0.455-2.829-1.176c-0.933-1.014-1.12-2.08-1.12-5.897
	c0-3.815,0.188-4.883,1.12-5.896c0.668-0.722,1.707-1.175,2.829-1.175c1.12,0,2.161,0.454,2.829,1.175
	c0.933,1.013,1.119,2.08,1.119,5.896C116.005,24.316,115.818,25.383,114.886,26.396z"/>
</svg>
