<?xml version="1.0" encoding="utf-8"?>
<!-- Generator: Adobe Illustrator 17.1.0, SVG Export Plug-In . SVG Version: 6.00 Build 0)  -->
<!DOCTYPE svg PUBLIC "-//W3C//DTD SVG 1.1//EN" "http://www.w3.org/Graphics/SVG/1.1/DTD/svg11.dtd">
<svg version="1.1" id="Layer_1" xmlns="http://www.w3.org/2000/svg" xmlns:xlink="http://www.w3.org/1999/xlink" x="0px" y="0px"
	 viewBox="0 0 514.621 251.335" enable-background="new 0 0 514.621 251.335" xml:space="preserve">
<path fill="#6D6D6D" d="M284.661,118.176c0,10.426-7.227,21.057-26.632,21.057c-19.406,0-26.633-10.631-26.633-21.057V89.479
	c0-10.426,7.227-21.059,26.633-21.059c19.406,0,26.632,10.633,26.632,21.059V118.176z M269.177,90.82
	c0-5.367-3.406-8.671-11.148-8.671c-7.742,0-11.149,3.304-11.149,8.671v26.014c0,5.367,3.406,8.67,11.149,8.67
	c7.742,0,11.148-3.303,11.148-8.67V90.82z"/>
<path fill="#6D6D6D" d="M338.558,117.356h-10.328c-0.791,0-1.44,0.649-1.44,1.44v17.972c0,0.791-0.648,1.439-1.439,1.439h-12.605
	c-0.791,0-1.439-0.648-1.439-1.439V70.899c0-0.792,0.648-1.439,1.439-1.439h25.199c6.842,0,24.355-1.26,24.355,19.51v8.98
	C362.3,110.853,355.28,117.356,338.558,117.356z M346.815,90.415c0-4.955-1.756-7.226-8.258-7.226h-10.328
	c-0.791,0-1.44,0.648-1.44,1.439v17.869c0,0.792,0.648,1.439,1.44,1.439h8.889c9.752,0,9.697-3.238,9.697-8.975V90.415z"/>
<path fill="#6D6D6D" d="M388.875,138.201c-0.832,0-1.512-0.68-1.512-1.512V70.964c0-0.832,0.68-1.512,1.512-1.512h40.228
	c0.83,0,1.512,0.68,1.512,1.512v10.705c0,0.832-0.682,1.512-1.512,1.512h-24.744c-0.832,0-1.512,0.68-1.512,1.512v9.57
	c0,0.832,0.68,1.512,1.512,1.512h22.576c0.83,0,1.512,0.68,1.512,1.512v10.705c0,0.832-0.682,1.512-1.512,1.512h-22.576
	c-0.832,0-1.512,0.68-1.512,1.512v11.945c0,0.832,0.68,1.512,1.512,1.512h24.744c0.83,0,1.512,0.68,1.512,1.512v10.705
	c0,0.832-0.682,1.512-1.512,1.512H388.875z"/>
<path fill="#6D6D6D" d="M473.695,94.341c-0.371-0.744-0.674-0.674-0.674,0.158v42.189c0,0.832-0.682,1.512-1.512,1.512h-11.738
	c-0.832,0-1.512-0.68-1.512-1.512V70.964c0-0.832,0.68-1.512,1.512-1.512h15.969c0.832,0,1.805,0.614,2.164,1.365l21.303,44.65
	c0.359,0.751,0.652,0.686,0.652-0.146V70.964c0-0.832,0.68-1.512,1.512-1.512h11.738c0.83,0,1.512,0.68,1.512,1.512v65.725
	c0,0.832-0.682,1.512-1.512,1.512h-16.074c-0.83,0-1.814-0.609-2.186-1.354L473.695,94.341z"/>
<g>
	<path fill="#6D6D6D" d="M234.669,167.226c0-7.088,0.071-13.631,7.923-13.631c6.36,0,6.47,5.234,6.47,7.598h-2.326
		c0-2.908-0.799-5.635-4.144-5.635c-5.525,0-5.597,4.689-5.597,11.668s0.071,11.666,5.597,11.666c3.018,0,4.144-2.689,4.181-6.07
		h2.47c0,1.891-0.435,8.033-6.65,8.033C234.741,180.855,234.669,174.313,234.669,167.226z"/>
	<path fill="#6D6D6D" d="M254.843,180.346v-26.241h2.326v11.776h10.322v-11.776h2.324v26.241h-2.324v-12.503h-10.322v12.503H254.843
		z"/>
	<path fill="#6D6D6D" d="M285.411,154.105l8.178,26.241h-2.436l-2.107-6.905h-10.287l-2.07,6.905h-2.326l8.285-26.241H285.411z
		 M288.427,171.478l-4.469-14.829h-0.074l-4.434,14.829H288.427z"/>
	<path fill="#6D6D6D" d="M299.913,156.068h-6.396v-1.963h15.119v1.963h-6.396v24.278h-2.326V156.068z"/>
	<path fill="#6D6D6D" d="M317.505,156.068h-6.396v-1.963h15.119v1.963h-6.396v24.278h-2.326V156.068z"/>
	<path fill="#6D6D6D" d="M337.169,154.105l8.178,26.241h-2.435l-2.107-6.905h-10.285l-2.072,6.905h-2.326l8.287-26.241H337.169z
		 M340.186,171.478l-4.473-14.829h-0.07l-4.436,14.829H340.186z"/>
	<path fill="#6D6D6D" d="M350.109,180.346v-26.241h3.562l10.648,23.043l0.072-0.072v-22.971h2.326v26.241h-3.525l-10.686-23.298
		l-0.072,0.073v23.225H350.109z"/>
	<path fill="#6D6D6D" d="M381.076,153.595c7.852,0,7.926,6.543,7.926,13.631c0,7.087-0.074,13.629-7.926,13.629
		c-7.85,0-7.922-6.542-7.922-13.629C373.154,160.138,373.227,153.595,381.076,153.595z M381.076,178.892
		c5.525,0,5.598-4.688,5.598-11.666s-0.072-11.668-5.598-11.668c-5.523,0-5.596,4.689-5.596,11.668S375.553,178.892,381.076,178.892
		z"/>
	<path fill="#6D6D6D" d="M402.014,153.595c7.852,0,7.924,6.543,7.924,13.631c0,7.087-0.072,13.629-7.924,13.629
		c-7.85,0-7.924-6.542-7.924-13.629C394.09,160.138,394.164,153.595,402.014,153.595z M402.014,178.892
		c5.525,0,5.598-4.688,5.598-11.666s-0.072-11.668-5.598-11.668c-5.523,0-5.598,4.689-5.598,11.668S396.49,178.892,402.014,178.892z
		"/>
	<path fill="#6D6D6D" d="M428.584,168.607h-5.307v-1.963h7.633v13.121c-2.326,0.727-4.762,1.09-7.232,1.09
		c-8.541,0-7.924-8.541-7.924-13.629c0-5.088-0.617-13.631,7.924-13.631c5.016,0,7.596,2.145,7.486,7.233h-2.326
		c0-3.452-1.49-5.271-5.16-5.271c-5.672,0-5.598,5.053-5.598,11.668c0,6.614-0.074,11.666,5.598,11.666
		c1.998,0,3.67-0.291,4.906-0.762V168.607z"/>
	<path fill="#6D6D6D" d="M446.758,154.105l8.178,26.241H452.5l-2.108-6.905h-10.285l-2.072,6.905h-2.326l8.287-26.241H446.758z
		 M449.775,171.478l-4.471-14.829h-0.072l-4.436,14.829H449.775z"/>
</g>
<g>
	<path fill="#A3ADB1" d="M207.926,182.075c0,0.792-0.533,1.074-1.188,0.626l-97.551-66.825c-0.653-0.448-1.188-1.462-1.188-2.254
		V0.839c0-0.792,0.534-1.074,1.188-0.626l97.551,66.826c0.654,0.448,1.188,1.462,1.188,2.254V182.075z"/>
</g>
<g>
	<path fill="#E1E8E9" d="M108,250.497c0,0.791,0.534,1.073,1.188,0.625l97.551-66.824c0.654-0.448,1.188-1.463,1.188-2.254V69.26
		c0-0.792-0.533-1.074-1.188-0.626l-97.551,66.825c-0.653,0.447-1.188,1.462-1.188,2.254V250.497z"/>
</g>
<g>
	<path fill="#A3ADB1" d="M0,69.26c0-0.792,0.535-1.074,1.188-0.626l97.551,66.825c0.653,0.447,1.188,1.462,1.188,2.254v112.783
		c0,0.791-0.535,1.073-1.188,0.625L1.188,184.296C0.535,183.848,0,182.835,0,182.043V69.26z"/>
</g>
<g>
	<path fill="#E1E8E9" d="M99.928,0.839c0-0.792-0.535-1.074-1.188-0.626L1.188,67.038C0.535,67.486,0,68.5,0,69.292v112.783
		c0,0.792,0.535,1.074,1.188,0.626l97.551-66.825c0.653-0.448,1.188-1.462,1.188-2.254L99.928,0.839z"/>
</g>
</svg>
